<?xml version="1.0" standalone="no"?>
<!DOCTYPE svg PUBLIC "-//W3C//DTD SVG 20010904//EN"
 "http://www.w3.org/TR/2001/REC-SVG-20010904/DTD/svg10.dtd">
<svg version="1.0" xmlns="http://www.w3.org/2000/svg"
 width="700.000000pt" height="700.000000pt" viewBox="0 0 700.000000 700.000000"
 preserveAspectRatio="xMidYMid meet">
<metadata>
Created by potrace 1.14, written by Peter Selinger 2001-2017
</metadata>
<g transform="translate(0.000000,700.000000) scale(0.100000,-0.100000)"
fill="#000000" stroke="none">
<path d="M3850 6703 c-89 -13 -280 -62 -325 -83 -11 -5 -49 -21 -85 -36 -36
-14 -89 -39 -118 -56 -29 -16 -57 -26 -62 -23 -6 4 -9 2 -8 -5 2 -6 -10 -18
-27 -28 -16 -9 -41 -27 -54 -39 -16 -15 -33 -21 -46 -17 -13 3 -16 2 -7 -4 17
-11 -21 -47 -39 -36 -7 4 -10 3 -6 -3 6 -10 -72 -80 -85 -76 -4 2 -8 -1 -8 -5
0 -10 -103 -78 -109 -73 -2 1 -8 -4 -13 -13 -5 -9 -14 -14 -19 -10 -5 3 -8 0
-7 -8 2 -8 -6 -13 -19 -12 -12 0 -20 -3 -17 -8 8 -12 -16 -39 -27 -32 -5 3 -9
0 -9 -6 0 -6 -5 -8 -12 -4 -6 4 -8 3 -5 -3 9 -15 -52 -62 -74 -58 -11 2 -17 0
-14 -6 4 -5 11 -7 16 -4 17 11 9 -4 -15 -28 -14 -14 -27 -22 -30 -19 -3 3 -6
0 -6 -7 0 -7 -5 -9 -10 -6 -6 4 -9 1 -8 -7 2 -7 -3 -12 -10 -10 -8 1 -11 -1
-8 -6 7 -11 -46 -72 -62 -72 -7 0 -11 -5 -9 -12 1 -6 -9 -17 -23 -25 -14 -7
-19 -13 -11 -13 11 0 10 -5 -5 -18 -10 -10 -30 -33 -44 -52 -14 -18 -38 -47
-55 -64 -16 -16 -24 -26 -16 -21 8 5 0 -13 -19 -38 -18 -26 -37 -47 -42 -47
-5 0 -7 -4 -4 -9 3 -5 -1 -14 -9 -21 -8 -7 -15 -19 -15 -27 0 -7 -10 -18 -22
-23 -13 -5 -17 -9 -10 -9 10 -1 10 -6 2 -21 -6 -11 -14 -18 -18 -16 -5 3 -8
-3 -9 -13 -1 -10 -16 -42 -33 -72 -18 -29 -46 -82 -62 -116 -18 -39 -34 -61
-40 -56 -7 4 -9 0 -5 -10 8 -22 -14 -77 -33 -77 -12 0 -12 -2 -1 -9 8 -5 9
-11 3 -15 -5 -3 -13 -18 -17 -33 -3 -16 -12 -41 -20 -58 -7 -16 -18 -45 -25
-62 -7 -18 -16 -33 -21 -33 -5 0 -5 -7 -2 -17 4 -10 2 -14 -5 -9 -6 3 -14 2
-17 -4 -4 -6 -3 -9 2 -8 11 4 14 -13 7 -35 -3 -10 -11 -14 -17 -11 -9 5 -9 4
-1 -5 9 -9 7 -22 -6 -49 -10 -20 -16 -40 -13 -45 2 -4 -1 -14 -7 -22 -7 -8 -9
-15 -5 -15 4 0 2 -7 -5 -15 -7 -8 -9 -15 -4 -15 4 0 3 -5 -3 -11 -6 -6 -9 -18
-6 -27 5 -11 3 -13 -7 -7 -8 5 -11 4 -7 -1 3 -5 -1 -36 -8 -69 -8 -32 -12 -62
-9 -66 2 -4 -1 -11 -7 -15 -8 -4 -7 -9 2 -15 10 -6 10 -9 2 -9 -7 0 -10 -9 -7
-22 5 -21 5 -63 1 -143 -1 -16 -6 -33 -12 -37 -6 -5 -6 -8 1 -8 7 0 10 -23 8
-62 -1 -35 -3 -108 -4 -163 -1 -57 -7 -106 -14 -114 -8 -11 -8 -13 1 -8 8 5
11 0 10 -13 -1 -11 -6 -20 -12 -20 -6 0 -7 -3 0 -8 12 -9 16 -44 4 -36 -5 3
-9 0 -9 -5 0 -6 5 -11 11 -11 8 0 8 -5 -1 -15 -7 -8 -8 -15 -3 -15 5 0 7 -20
3 -47 -3 -27 -5 -83 -4 -126 1 -61 -2 -80 -15 -88 -14 -9 -14 -10 2 -5 13 4
19 -1 23 -24 4 -16 5 -32 4 -36 -1 -4 3 -10 8 -13 6 -3 12 -19 13 -36 2 -16 7
-32 11 -35 4 -3 9 -17 11 -30 2 -14 6 -32 9 -40 27 -75 58 -219 50 -238 -3
-10 -1 -13 6 -8 8 5 12 -3 12 -26 0 -18 4 -40 10 -48 6 -9 5 -20 -3 -29 -8
-10 -8 -13 -1 -8 10 6 24 -47 26 -93 0 -3 4 -15 9 -27 10 -26 -7 -32 -31 -10
-12 10 -12 9 -1 -5 7 -10 19 -18 26 -18 8 0 12 -10 10 -25 -1 -14 2 -28 6 -31
5 -3 9 -10 9 -15 0 -6 -6 -7 -12 -3 -9 6 -9 3 0 -9 8 -9 11 -21 7 -27 -3 -5
-3 -10 2 -10 8 0 13 -45 16 -147 1 -29 4 -53 7 -53 3 0 6 -28 7 -63 2 -34 4
-73 6 -87 2 -14 -1 -31 -6 -37 -6 -8 -6 -13 0 -13 5 0 10 -7 10 -15 0 -8 -4
-12 -9 -9 -10 6 -11 -10 -1 -20 4 -3 7 -22 8 -41 1 -32 -6 -40 -28 -36 -5 1
-6 -3 -2 -9 3 -6 10 -8 15 -5 5 3 11 1 15 -5 3 -5 1 -10 -5 -10 -6 0 -8 -5 -3
-12 10 -16 5 -49 -10 -67 -9 -11 -9 -13 0 -8 11 7 10 -45 -2 -128 -1 -11 -3
-37 -4 -59 -1 -35 -3 -37 -19 -25 -14 11 -15 11 -4 -1 13 -15 17 -54 4 -46 -4
2 -8 -4 -8 -15 0 -10 4 -19 9 -19 4 0 5 -5 2 -10 -4 -6 -12 -7 -18 -3 -7 4 -6
0 2 -10 7 -9 10 -17 5 -17 -5 0 -10 -10 -10 -22 -3 -49 -9 -78 -16 -78 -4 0
-4 -7 -1 -17 4 -9 2 -14 -3 -10 -6 3 -9 -7 -8 -24 2 -24 -1 -29 -13 -24 -13 4
-14 3 -4 -9 7 -9 9 -21 5 -28 -5 -7 -9 -19 -11 -27 -6 -44 -14 -61 -26 -54 -8
4 -7 1 2 -10 9 -12 10 -17 2 -17 -7 0 -10 -4 -7 -9 7 -11 -4 -42 -13 -37 -3 2
-7 -8 -7 -22 -1 -15 -12 -49 -25 -77 -12 -27 -23 -54 -24 -60 0 -5 -6 -9 -12
-8 -6 1 -10 -5 -9 -15 3 -20 -15 -53 -25 -46 -4 2 -11 -1 -15 -7 -4 -8 -3 -9
4 -5 18 11 15 -3 -9 -40 -11 -19 -25 -32 -30 -29 -5 4 -6 -2 -2 -11 5 -13 3
-15 -7 -9 -9 6 -12 4 -8 -6 3 -8 -16 -36 -47 -68 -45 -46 -56 -53 -68 -42 -13
10 -15 9 -12 -6 3 -21 -13 -45 -26 -37 -5 3 -9 0 -9 -7 0 -6 -10 -21 -22 -33
-13 -12 -41 -44 -62 -71 -21 -28 -51 -61 -65 -75 -15 -14 -20 -21 -13 -15 8 5
2 -15 -14 -45 -15 -30 -33 -58 -38 -62 -6 -4 -7 -8 -2 -8 5 0 2 -8 -5 -17 -8
-10 -9 -14 -2 -10 9 6 10 -2 6 -27 -4 -25 1 -47 15 -75 11 -21 19 -42 16 -45
-2 -3 -1 -4 2 -1 11 7 45 -15 39 -25 -3 -6 0 -7 8 -5 13 6 70 -18 63 -26 -3
-2 10 -5 27 -6 102 -5 148 -11 162 -23 13 -11 14 -10 9 5 -6 14 -4 16 7 10 19
-12 49 -14 55 -3 3 4 11 5 17 1 18 -11 36 -12 43 -2 3 5 11 6 17 2 18 -11 36
-12 42 -3 3 4 21 4 40 0 21 -5 35 -4 35 1 0 6 9 5 20 -1 15 -8 20 -8 20 2 0 9
3 9 10 -2 6 -9 13 -11 17 -5 11 13 36 18 28 5 -3 -5 -1 -10 4 -10 6 0 11 4 11
8 0 4 11 8 25 8 14 0 25 -5 25 -10 0 -6 4 -5 9 2 4 8 12 14 16 14 4 0 12 -6
16 -14 5 -7 9 -8 9 -2 0 14 30 14 30 0 0 -6 4 -5 9 2 11 17 21 17 32 0 5 -7 9
-8 9 -3 0 16 64 12 86 -5 17 -14 18 -13 7 1 -11 14 -8 16 27 16 26 0 37 -4 33
-11 -4 -6 1 -5 10 3 14 11 17 11 17 0 0 -9 3 -10 8 -4 10 16 54 17 46 2 -5 -8
-3 -8 7 1 19 18 28 15 24 -9 -3 -12 -1 -18 3 -15 4 4 7 13 7 19 0 7 23 13 59
14 48 2 57 0 52 -12 -3 -8 -1 -17 5 -20 5 -4 9 -3 8 2 -5 28 4 33 57 33 45 0
55 -3 51 -15 -4 -8 -2 -17 4 -20 5 -4 9 -3 8 2 -5 30 4 32 161 35 102 2 160
-1 160 -7 0 -7 3 -7 8 0 10 14 213 14 204 0 -3 -5 1 -4 10 3 14 11 18 10 28
-5 9 -15 11 -15 6 -1 -4 13 1 16 19 14 13 -1 30 -8 38 -14 10 -9 16 -9 25 0
16 16 113 19 131 4 12 -8 13 -8 7 2 -12 20 41 15 54 -5 11 -17 11 -17 6 0 -5
16 6 17 167 15 141 -3 173 -6 179 -18 5 -12 7 -12 7 3 1 12 10 17 29 18 15 0
36 2 47 5 11 2 32 5 47 7 16 1 28 5 28 10 0 4 7 7 16 7 30 0 159 70 212 115
30 25 50 45 45 45 -4 0 -1 4 7 10 9 6 20 5 30 -3 13 -10 13 -10 2 5 -11 14 -8
24 23 71 42 63 70 143 53 153 -7 4 -7 9 1 13 6 4 -8 19 -34 35 -24 16 -42 32
-39 37 3 5 -2 6 -11 3 -8 -4 -23 0 -32 7 -14 12 -15 12 -9 1 7 -11 4 -12 -13
-3 -11 7 -21 8 -21 4 0 -4 -5 -2 -11 4 -6 6 -18 9 -25 6 -8 -3 -20 0 -28 6 -7
6 -16 8 -19 4 -4 -3 -7 -2 -7 4 0 6 -11 8 -25 5 -30 -5 -83 31 -105 72 -12 24
-12 29 0 38 12 8 12 9 -2 4 -21 -6 -54 54 -44 79 4 11 2 14 -6 9 -7 -5 -9 0
-6 14 4 14 2 20 -4 16 -7 -5 -9 4 -6 24 3 19 1 29 -6 25 -5 -4 -7 1 -3 10 3 9
2 19 -2 22 -11 6 -27 115 -35 235 -1 20 -5 41 -10 48 -4 7 -2 12 5 12 10 0 10
3 1 12 -9 9 -7 14 6 25 15 11 15 12 1 7 -15 -5 -17 13 -18 175 -1 141 1 181
11 181 8 0 9 3 3 8 -12 8 -13 27 -3 38 4 4 3 13 -3 21 -6 7 -8 13 -3 13 5 0 9
21 10 48 1 43 8 105 18 158 2 12 7 43 11 70 3 27 12 70 19 94 12 41 16 45 42
42 16 -2 35 -9 42 -14 8 -7 12 -7 12 1 0 7 5 9 12 4 23 -14 320 -11 414 3 403
64 639 290 818 786 60 165 160 517 180 633 3 17 10 55 16 85 16 93 19 112 25
190 3 41 8 86 10 100 2 14 7 61 10 105 3 44 8 114 11 155 16 189 10 567 -11
710 -25 181 -76 375 -126 487 -10 24 -19 45 -19 48 0 22 -100 202 -168 300
-30 44 -55 86 -55 93 0 6 -3 10 -5 7 -7 -6 -32 15 -32 27 0 5 6 6 13 2 7 -4 9
-3 4 2 -5 5 -12 9 -16 9 -8 0 -61 52 -61 60 0 3 -12 19 -27 34 -88 91 -102
108 -96 115 5 4 3 6 -3 4 -13 -4 -105 77 -99 86 3 3 2 4 -1 1 -12 -8 -45 16
-38 28 4 7 4 9 -1 5 -12 -11 -66 31 -59 45 4 7 4 9 -1 5 -12 -11 -67 21 -59
34 5 7 2 8 -6 3 -8 -5 -18 -2 -26 9 -7 10 -14 16 -16 15 -1 -1 -23 9 -48 22
-25 13 -58 29 -75 35 -16 6 -29 17 -27 24 1 6 -2 9 -7 5 -6 -3 -27 2 -48 11
-42 18 -154 53 -193 60 -14 2 -47 9 -73 15 -71 17 -309 17 -417 2z m-440
-6407 c0 -11 -19 -15 -25 -6 -3 5 1 10 9 10 9 0 16 -2 16 -4z"/>

</g>
</svg>
